<?xml version="1.0" standalone="no"?><!DOCTYPE svg PUBLIC "-//W3C//DTD SVG 1.1//EN" "http://www.w3.org/Graphics/SVG/1.1/DTD/svg11.dtd"><svg t="1707228981904" class="icon" viewBox="0 0 1026 1024" version="1.1" xmlns="http://www.w3.org/2000/svg" p-id="1049" width="48" height="48"><path d="M113.787259 227.553185a113.787259 113.787259 0 1 0 0-227.531853 113.787259 113.787259 0 0 0 0 227.531853zM511.978668 227.553185A113.787259 113.787259 0 1 0 511.978668 0.021332a113.787259 113.787259 0 0 0 0 227.531853zM910.170076 227.553185a113.787259 113.787259 0 1 0 0-227.531853 113.787259 113.787259 0 0 0 0 227.531853zM113.787259 625.787259a113.787259 113.787259 0 1 0 0-227.574518 113.787259 113.787259 0 0 0 0 227.574518z" fill="#467ED9" p-id="1050"></path><path d="M511.978668 625.787259a113.787259 113.787259 0 1 0 0-227.574518 113.787259 113.787259 0 0 0 0 227.574518z" fill="#36D6BB" p-id="1051"></path><path d="M910.170076 625.787259a113.787259 113.787259 0 1 0 0-227.574518 113.787259 113.787259 0 0 0 0 227.574518zM113.787259 1023.978668a113.787259 113.787259 0 1 0 0-227.531853 113.787259 113.787259 0 0 0 0 227.531853zM511.978668 1023.978668a113.787259 113.787259 0 1 0 0-227.531853A113.787259 113.787259 0 0 0 511.978668 1023.978668zM910.170076 1023.978668a113.787259 113.787259 0 1 0 0-227.531853 113.787259 113.787259 0 0 0 0 227.531853z" fill="#467ED9" p-id="1052"></path></svg>